HIERARCHY
ROOT Hips
{
	OFFSET 0.00000 0.00000 0.00000
	CHANNELS 6 Xposition Yposition Zposition Zrotation Yrotation Xrotation 
	JOINT LHipJoint
	{
		OFFSET 0 0 0
		CHANNELS 3 Zrotation Yrotation Xrotation
		JOINT LeftHip
		{
			OFFSET 1.57358 -1.76629 0.73362
			CHANNELS 3 Zrotation Yrotation Xrotation
			JOINT LeftKnee
			{
				OFFSET 2.40600 -6.61045 0.00000
				CHANNELS 3 Zrotation Yrotation Xrotation
				JOINT LeftAnkle
				{
					OFFSET 2.66168 -7.31291 0.00000
					CHANNELS 3 Zrotation Yrotation Xrotation
					JOINT LeftToe
					{
						OFFSET 0.20870 -0.57341 2.12506
						CHANNELS 3 Zrotation Yrotation Xrotation
						End Site
						{
							OFFSET 0.00000 -0.00000 1.10557
						}
					}
				}
			}
		}
	}
	JOINT RHipJoint
	{
		OFFSET 0 0 0
		CHANNELS 3 Zrotation Yrotation Xrotation
		JOINT RightHip
		{
			OFFSET -1.49299 -1.76629 0.73362
			CHANNELS 3 Zrotation Yrotation Xrotation
			JOINT RightKnee
			{
				OFFSET -2.43663 -6.69460 0.00000
				CHANNELS 3 Zrotation Yrotation Xrotation
				JOINT RightAnkle
				{
					OFFSET -2.62959 -7.22474 0.00000
					CHANNELS 3 Zrotation Yrotation Xrotation
					JOINT RightToe
					{
						OFFSET -0.25784 -0.70841 2.21862
						CHANNELS 3 Zrotation Yrotation Xrotation
						End Site
						{
							OFFSET -0.00000 -0.00000 1.16452
						}
					}
				}
			}
		}
	}
	JOINT lowerback
	{
		OFFSET 0 0 0
		CHANNELS 3 Zrotation Yrotation Xrotation
		JOINT Chest
		{
			OFFSET -0.00034 2.12399 -0.25450
			CHANNELS 3 Zrotation Yrotation Xrotation
			JOINT Chest2
			{
				OFFSET 0.05594 2.14379 -0.03318
				CHANNELS 3 Zrotation Yrotation Xrotation
				JOINT lowerneck
				{
					OFFSET 0 0 0
					CHANNELS 3 Zrotation Yrotation Xrotation
					JOINT Neck
					{
						OFFSET -0.09835 1.62725 0.24211
						CHANNELS 3 Zrotation Yrotation Xrotation
						JOINT Head
						{
							OFFSET 0.10849 1.66041 -0.22648
							CHANNELS 3 Zrotation Yrotation Xrotation
							End Site
							{
								OFFSET 0.04385 1.68267 -0.10541
							}
						}
					}
				}
				JOINT LeftCollar
				{
					OFFSET 0 0 0
					CHANNELS 3 Zrotation Yrotation Xrotation
					JOINT LeftShoulder
					{
						OFFSET 3.29108 0.79398 -0.68179
CHANNELS 3 Zrotation Xrotation Yrotation
						JOINT LeftElbow
						{
OFFSET 0 -5.153100 -0.000000
CHANNELS 3 Zrotation Xrotation Yrotation
							JOINT LeftWrist
							{
OFFSET 0 -3.751380 -0.000000
CHANNELS 3 Zrotation Xrotation Yrotation
								JOINT lhand
								{
									OFFSET 0 0 0
CHANNELS 3 Zrotation Xrotation Yrotation
									JOINT LFingers
									{
OFFSET 0 -0.529170 0.000000
CHANNELS 3 Zrotation Xrotation Yrotation
										End Site
										{
OFFSET 0 -0.426630 0.000000
										}
									}
								}
								JOINT LThumb
								{
OFFSET 0 0.000000 0.000000
CHANNELS 3 Zrotation Xrotation Yrotation
									End Site
									{
OFFSET 0 -0.433150 0.433150
									}
								}
							}
						}
					}
				}
				JOINT RightCollar
				{
					OFFSET 0 0 0
					CHANNELS 3 Zrotation Yrotation Xrotation
					JOINT RightShoulder
					{
						OFFSET -3.07414 1.06285 -0.44338
CHANNELS 3 Zrotation Xrotation Yrotation
						JOINT RightElbow
						{
OFFSET 0 -5.296130 0.000000
CHANNELS 3 Zrotation Xrotation Yrotation
							JOINT RightWrist
							{
OFFSET 0 -3.761440 -0.000000
CHANNELS 3 Zrotation Xrotation Yrotation
								JOINT rhand
								{
									OFFSET 0 0 0
CHANNELS 3 Zrotation Xrotation Yrotation
									JOINT RFingers
									{
OFFSET 0 -0.747320 0.000000
CHANNELS 3 Zrotation Xrotation Yrotation
										End Site
										{
OFFSET 0 -0.602510 0.000000
										}
									}
								}
								JOINT RThumb
								{
OFFSET 0 0.000000 0.000000
CHANNELS 3 Zrotation Xrotation Yrotation
									End Site
									{
OFFSET 0 -0.611710 0.611710
									}
								}
							}
						}
					}
				}
			}
		}
	}
}
MOTION
Frames: 10
Frame Time: 0.008333333333333333
8.855770 15.819645 2.604826 25.348888 -26.391069 -17.006434 0.000000 0.000000 0.000000 -18.353825 -6.279467 15.282736 2.409214 9.670793 27.917345 0.736260 -4.459559 18.316204 3.302984 -11.167150 -32.849090 0.000000 0.000000 0.000000 6.823107 1.014699 -43.285394 -13.778014 -19.045296 71.525475 -0.040878 8.381399 -6.663732 -0.811889 -5.748156 16.055972 -12.525104 -1.903459 10.319855 -2.254428 -4.301954 -1.091937 5.253184 -1.723742 -6.265713 -16.106949 -10.892253 -8.467688 6.322154 -13.973654 19.757831 3.101831 -7.252765 9.212065 0.000000 0.000000 0.000000 1.999965 10.698643 -40.045593 98.084638 -59.751551 66.995645 18.282046 -11.132281 -6.193111 0.000000 0.000000 0.000000 -7.125000 0.000000 0.000000 -7.121983 36.420963 -1.511865 0.000000 0.000000 0.000000 -10.827179 17.863736 49.254684 -131.496060 -52.373633 -95.015657 -7.368127 -8.009147 -20.586960 0.000000 0.000000 0.000000 7.125000 0.000000 0.000000 13.485561 9.681046 11.353385
8.790070 15.832798 2.670876 27.045092 -26.074067 -17.553305 0.000000 0.000000 0.000000 -20.353310 -6.876311 15.248052 2.391106 9.637201 27.809801 0.858478 -4.848900 19.907817 3.178212 -10.971644 -32.191087 0.000000 0.000000 0.000000 5.217865 0.486219 -43.413151 -13.788062 -19.048342 71.556113 -0.038628 8.659814 -6.788590 -0.840251 -5.846990 16.341241 -13.831578 -1.838042 10.131471 -2.632629 -4.397592 -1.209402 5.573594 -1.732089 -6.218139 -16.175683 -10.892504 -8.422990 6.317156 -13.964751 19.689145 3.114450 -7.254049 9.184448 0.000000 0.000000 0.000000 2.190494 10.852905 -39.677047 98.047857 -59.753709 66.963878 18.400657 -10.752189 -7.042898 0.000000 0.000000 0.000000 -7.125000 0.000000 0.000000 -7.127674 37.313223 -1.356443 0.000000 0.000000 0.000000 -10.864704 17.764760 49.093896 -131.343669 -52.438901 -94.895012 -7.483264 -8.157557 -20.554268 0.000000 0.000000 0.000000 7.125000 0.000000 0.000000 13.413288 9.703683 11.282502
8.701551 15.876064 2.788461 25.364021 -27.806778 -17.129408 0.000000 0.000000 0.000000 -18.830751 -6.761518 16.017654 2.403144 9.659601 27.881468 0.940264 -4.968334 20.730628 2.760386 -10.225873 -29.776945 0.000000 0.000000 0.000000 7.719375 1.434465 -41.997184 -13.617303 -18.992236 71.030822 -0.080847 8.304723 -7.322883 -0.854452 -5.894617 16.479202 -11.354596 -1.635636 9.717519 -2.210581 -3.733154 -1.006403 4.544923 -1.497549 -5.957464 -16.276938 -10.967207 -8.387017 6.437427 -14.068518 19.455442 3.158483 -7.295081 9.126947 0.000000 0.000000 0.000000 2.415823 10.945542 -39.170178 97.682962 -59.774749 66.648564 18.229828 -10.308649 -7.287697 0.000000 0.000000 0.000000 -7.125000 0.000000 0.000000 -7.306423 37.556905 -1.345138 0.000000 0.000000 0.000000 -10.897607 17.574566 48.928126 -131.152114 -52.519536 -94.742920 -7.542440 -8.306194 -20.403014 0.000000 0.000000 0.000000 7.125000 0.000000 0.000000 13.377280 9.846738 11.210869
8.613031 15.919329 2.906045 23.682949 -29.539489 -16.705512 0.000000 0.000000 0.000000 -17.308191 -6.646725 16.787255 2.415181 9.682001 27.953135 1.022050 -5.087767 21.553439 2.342561 -9.480103 -27.362803 0.000000 0.000000 0.000000 10.220886 2.382711 -40.581218 -13.446544 -18.936131 70.505530 -0.123065 7.949633 -7.857177 -0.868653 -5.942244 16.617163 -8.877615 -1.433231 9.303566 -1.788534 -3.068715 -0.803405 3.516252 -1.263008 -5.696790 -16.378193 -11.041909 -8.351044 6.557698 -14.172285 19.221739 3.202516 -7.336113 9.069446 0.000000 0.000000 0.000000 2.641152 11.038179 -38.663310 97.318067 -59.795788 66.333250 18.058999 -9.865108 -7.532495 0.000000 0.000000 0.000000 -7.125000 0.000000 0.000000 -7.485172 37.800587 -1.333833 0.000000 0.000000 0.000000 -10.930509 17.384373 48.762357 -130.960560 -52.600170 -94.590828 -7.601616 -8.454832 -20.251759 0.000000 0.000000 0.000000 7.125000 0.000000 0.000000 13.341272 9.989793 11.139237
8.527393 15.958787 3.019303 22.429870 -31.088992 -16.410090 0.000000 0.000000 0.000000 -16.249160 -6.612412 17.454935 2.429435 9.708412 28.037704 1.119072 -5.112501 22.424448 1.907451 -8.598733 -24.588317 0.000000 0.000000 0.000000 12.212983 3.218643 -39.347794 -13.301966 -18.888481 70.060663 -0.159170 7.708503 -8.338497 -0.871684 -5.951713 16.644781 -6.836844 -1.226976 8.888218 -1.465912 -2.465481 -0.631664 2.633586 -1.043627 -5.439124 -16.451555 -11.108121 -8.306454 6.648457 -14.263193 18.981347 3.235162 -7.372083 9.002184 0.000000 0.000000 0.000000 2.861959 11.127542 -38.142726 96.844995 -59.820509 65.924315 17.951290 -9.539953 -7.465330 0.000000 0.000000 0.000000 -7.125000 0.000000 0.000000 -7.571374 37.723008 -1.360426 0.000000 0.000000 0.000000 -10.978424 17.183858 48.599757 -130.769272 -52.680348 -94.438862 -7.655926 -8.601142 -20.095084 0.000000 0.000000 0.000000 7.125000 0.000000 0.000000 13.308440 10.138569 11.068867
8.453214 15.983107 3.115359 22.878575 -31.910024 -16.625510 0.000000 0.000000 0.000000 -17.033206 -6.898103 17.717354 2.452498 9.750770 28.173571 1.276677 -4.760690 23.487103 1.403618 -7.178196 -20.381032 0.000000 0.000000 0.000000 12.179557 3.607997 -38.840193 -13.261492 -18.874455 69.935577 -0.170963 7.920504 -8.609185 -0.830303 -5.809461 16.233655 -6.530532 -1.005415 8.467322 -1.538626 -2.105611 -0.584212 2.331460 -0.884522 -5.193418 -16.414012 -11.140570 -8.227599 6.621870 -14.302970 18.714357 3.222531 -7.387924 8.896114 0.000000 0.000000 0.000000 3.064783 11.203884 -37.567610 95.941794 -59.859867 65.143130 18.094554 -9.685520 -6.157737 0.000000 0.000000 0.000000 -7.125000 0.000000 0.000000 -7.289590 36.368032 -1.537710 0.000000 0.000000 0.000000 -11.086029 16.942304 48.449758 -130.579044 -52.758715 -94.287398 -7.690887 -8.738196 -19.916859 0.000000 0.000000 0.000000 7.125000 0.000000 0.000000 13.288238 10.310096 11.003515
8.379035 16.007426 3.211416 23.327279 -32.731055 -16.840930 0.000000 0.000000 0.000000 -17.817253 -7.183795 17.979773 2.475561 9.793129 28.309438 1.434281 -4.408879 24.549758 0.899785 -5.757659 -16.173747 0.000000 0.000000 0.000000 12.146131 3.997352 -38.332591 -13.221018 -18.860429 69.810491 -0.182757 8.132504 -8.879873 -0.788922 -5.667208 15.822529 -6.224220 -0.783854 8.046426 -1.611340 -1.745740 -0.536759 2.029335 -0.725416 -4.947712 -16.376469 -11.173019 -8.148744 6.595282 -14.342746 18.447367 3.209900 -7.403765 8.790044 0.000000 0.000000 0.000000 3.267607 11.280227 -36.992494 95.038593 -59.899224 64.361944 18.237819 -9.831087 -4.850143 0.000000 0.000000 0.000000 -7.125000 0.000000 0.000000 -7.007806 35.013056 -1.714994 0.000000 0.000000 0.000000 -11.193635 16.700751 48.299760 -130.388816 -52.837081 -94.135934 -7.725848 -8.875249 -19.738633 0.000000 0.000000 0.000000 7.125000 0.000000 0.000000 13.268036 10.481623 10.938164
8.307029 16.030939 3.306689 23.759985 -33.302810 -17.075714 0.000000 0.000000 0.000000 -18.627780 -7.585822 18.232585 2.509189 9.853986 28.505536 1.581906 -4.218267 25.580148 0.544576 -4.720579 -13.114485 0.000000 0.000000 0.000000 12.013618 4.146766 -37.816214 -13.187018 -18.848611 69.705353 -0.192306 8.433647 -9.153646 -0.762545 -5.576678 15.560845 -5.939971 -0.639877 7.695308 -1.695097 -1.498897 -0.479970 1.744388 -0.620383 -4.720938 -16.286361 -11.205678 -8.225175 6.457595 -14.351893 18.338690 3.146435 -7.409813 8.749896 0.000000 0.000000 0.000000 3.446907 11.372708 -36.429110 94.263075 -59.930296 63.691064 18.372178 -9.867237 -3.962515 0.000000 0.000000 0.000000 -7.125000 0.000000 0.000000 -6.786685 34.094569 -1.826496 0.000000 0.000000 0.000000 -11.320733 16.452524 48.154389 -130.196145 -52.915856 -93.982367 -7.803032 -9.044276 -19.623162 0.000000 0.000000 0.000000 7.125000 0.000000 0.000000 13.220161 10.588373 10.866793
8.239339 16.052851 3.400408 24.160924 -33.379571 -17.348949 0.000000 0.000000 0.000000 -19.490891 -8.218858 18.466324 2.563794 9.951578 28.821234 1.709714 -4.347750 26.546467 0.484493 -4.444937 -12.334869 0.000000 0.000000 0.000000 11.684347 3.819728 -37.282409 -13.165874 -18.841179 69.639827 -0.197400 8.911800 -9.433546 -0.765965 -5.588856 15.595911 -5.699534 -0.649961 7.482749 -1.800784 -1.476497 -0.404639 1.493553 -0.622721 -4.531756 -16.091876 -11.238756 -8.609958 6.099294 -14.300219 18.544375 2.982026 -7.396414 8.840648 0.000000 0.000000 0.000000 3.579495 11.497236 -35.889025 93.741099 -59.944916 63.239220 18.488856 -9.686116 -3.908817 0.000000 0.000000 0.000000 -7.125000 0.000000 0.000000 -6.686024 34.042825 -1.807375 0.000000 0.000000 0.000000 -11.486537 16.191047 48.018208 -129.998624 -52.995444 -93.824623 -7.964056 -9.276793 -19.632303 0.000000 0.000000 0.000000 7.125000 0.000000 0.000000 13.117336 10.566496 10.783473
8.171650 16.074763 3.494126 24.561862 -33.456332 -17.622185 0.000000 0.000000 0.000000 -20.354002 -8.851894 18.700062 2.618399 10.049169 29.136933 1.837521 -4.477232 27.512787 0.424410 -4.169294 -11.555254 0.000000 0.000000 0.000000 11.355076 3.492690 -36.748604 -13.144730 -18.833747 69.574301 -0.202494 9.389953 -9.713445 -0.769384 -5.601033 15.630976 -5.459096 -0.660045 7.270190 -1.906470 -1.454097 -0.329308 1.242719 -0.625058 -4.342574 -15.897391 -11.271833 -8.994741 5.740994 -14.248544 18.750060 2.817618 -7.383016 8.931401 0.000000 0.000000 0.000000 3.712083 11.621763 -35.348940 93.219122 -59.959536 62.787375 18.605533 -9.504994 -3.855119 0.000000 0.000000 0.000000 -7.125000 0.000000 0.000000 -6.585362 33.991081 -1.788255 0.000000 0.000000 0.000000 -11.652341 15.929570 47.882026 -129.801103 -53.075031 -93.666878 -8.125080 -9.509310 -19.641445 0.000000 0.000000 0.000000 7.125000 0.000000 0.000000 13.014511 10.544619 10.700152
